<svg height="42.18018" viewBox="0 0 41.352383 42.180184" width="41.352383" xmlns="http://www.w3.org/2000/svg">
 <g stroke-linecap="square" stroke-width="1.0848">
  <g fill="#ed9e5e" transform="matrix(.99999999719 0 0 1.00000000019 -12.50390607292 -9.97997494946)">
   <path d="m50.632812 21.412109-6.066406 6.066407v21.714843 2.966797h6.066406v-2.966797z"/>
   <path d="m39.966797 32.080078-6.066406 6.066406v11.046875 2.966797h6.066406v-2.966797z"/>
   <path d="m23.232422 36.878906v12.314453 2.966797h6.066406v-2.966797-6.249359z"/>
   <path d="m18.632812 41.314453-4.86914 4.867188-1.195313 1.195312v1.816406 2.966797h6.064453v-2.966797z"/>
  </g>
  <path d="m30.34375 0 3.365234 3.3652344-17.011718 17.0117186-6.048828-6.050781-10.648438 10.648437v8.484375l1.2597656-1.259765 9.3867184-9.384766 6.050782 6.048828 21.255859-21.253906 3.398437 3.398437v-11.007812z" fill="#940" transform="matrix(.99999999719 0 0 1.00000000019 -.00000009711 -.00000010405)"/>
 </g>
</svg>